<?xml version="1.0" encoding="utf-8"?>
<!-- Generator: Adobe Illustrator 16.0.0, SVG Export Plug-In . SVG Version: 6.00 Build 0)  -->
<!DOCTYPE svg PUBLIC "-//W3C//DTD SVG 1.1//EN" "http://www.w3.org/Graphics/SVG/1.1/DTD/svg11.dtd">
<svg version="1.1" xmlns="http://www.w3.org/2000/svg" xmlns:xlink="http://www.w3.org/1999/xlink" x="0px" y="0px"
	 width="464.938px" height="464.906px" viewBox="0 0 464.938 464.906" enable-background="new 0 0 464.938 464.906"
	 xml:space="preserve">
<g id="Layer_2">
</g>
<g id="Layer_1">
	<g>
		<path fill="#333333" d="M97.476,268.387c0,2.679,1.571,3.683,3.78,3.683c2.276,0,4.057-1.271,6.057-2.41v-5.556l-4.518,0.334
			C98.846,264.706,97.476,265.71,97.476,268.387z"/>
		<path fill="#333333" d="M259.566,170.061c-2.879,0-5.222,1.096-5.624,7.096h10.645
			C264.52,171.156,262.312,170.061,259.566,170.061z"/>
		<path fill="#333333" d="M332.496,268.387c0,2.679,1.062,3.683,3.27,3.683c2.278,0,4.547-1.271,5.547-2.41v-5.556l-4.008,0.334
			C333.356,264.706,332.496,265.71,332.496,268.387z"/>
		<path fill="#333333" d="M201.767,251.06c-2.879,0-5.222,1.097-5.624,7.097h10.645C206.72,252.156,204.511,251.06,201.767,251.06z"
			/>
		<path fill="#333333" d="M235.359,16.926c-119.155,0-215.749,96.594-215.749,215.749s96.594,215.749,215.749,215.749
			c119.153,0,215.748-96.595,215.748-215.749S354.513,16.926,235.359,16.926z M278.508,148.156h13.805v42.917
			c0,1.071,0.391,1.206,1.396,1.34l3.604,0.468v5.275h-19v-5.275l3.138-0.468c0.937-0.135,0.862-0.336,0.862-1.34v-35.346
			c0-0.736-0.195-1.205-0.864-1.406l-3.679-1.006L278.508,148.156z M180.444,148.156h13.868v42.917c0,1.071-0.108,1.206,0.895,1.34
			l3.105,0.468v5.275h-18v-5.275l3.138-0.468c0.938-0.135,0.862-0.336,0.862-1.34v-35.346c0-0.736-0.227-1.205-0.896-1.406
			l-3.695-1.006L180.444,148.156z M167.258,146.02c3.883,0,6.092,2.075,6.092,5.891s-2.209,6.025-6.092,6.025
			c-3.816,0-6.025-2.209-6.025-6.025S163.442,146.02,167.258,146.02z M159.312,192.881l3.171-0.468
			c0.938-0.135,0.829-0.336,0.829-1.34v-19.681c0-0.737-0.303-1.205-0.972-1.406l-3.667-0.839l0.686-4.99h13.954v26.917
			c0,1.071-0.176,1.206,0.828,1.34l3.172,0.468v5.275h-18V192.881z M109.089,149.156h20.224v5.767l-5.393,0.182l10.072,33.051h0.536
			l9.707-33.051l-5.355-0.666l0.669-5.283h17.764v5.767l-3.024,0.736c-0.804,0.201-1.579,0.462-1.78,1.266l-12.357,41.231h-13.656
			l-13.456-41.365c-0.268-0.803-0.803-0.934-1.607-1.135l-3.013-1.008L109.089,149.156z M87.312,243.552l-7.502-0.335l-1.007-4.64
			c-0.134-0.669-0.471-0.421-1.208-0.421H67.312v12h16v8h-16v13.177c0,1.071-0.389,1.206,0.615,1.339l9.385,0.536v4.948h-26v-4.881
			l4.073-0.469c0.938-0.135,0.927-0.336,0.927-1.339v-34.343c0-1.005,0.01-1.272-0.927-1.339l-4.073-0.47v-5.16h36V243.552z
			 M121.312,278.156h-12.122l-0.669-3.444l-0.334,0.019c-2.544,2.477-5.892,4.527-11.247,4.527c-8.435,0-9.774-5.736-9.774-9.887
			c0-6.694,4.116-9.766,12.483-10.301l7.664-0.523v-3.682c0-3.146-0.3-5.289-4.45-5.289c-3.214,0-4.869,0.469-4.869,4.486
			l-9.431-0.805c0-9.037,7.783-10.31,13.941-10.31c10.176,0,13.808,2.745,13.808,12.117v16.268c0,1.071,0.424,1.206,1.429,1.339
			l3.571,0.536V278.156z M143.312,278.156h-20v-4.948l3.638-0.468c0.938-0.135,1.362-0.336,1.362-1.341v-35.346
			c0-0.737-0.324-1.205-0.993-1.406l-3.745-1.671l0.675-5.82h14.063v44.243c0,1.071,0.391,1.206,1.395,1.341l3.605,0.468V278.156z
			 M185.312,278.156h-13.869l-8.509-16.9l-3.622,4.12v6.023c0,1.071,0.023,1.206,1.027,1.341l3.973,0.468v4.948h-20v-4.948
			l3.638-0.468c0.938-0.135,1.362-0.336,1.362-1.341v-35.346c0-0.737-0.249-1.205-0.918-1.406l-3.705-1.671l0.713-5.82h13.91v29.382
			l12.265-13.382h9.735v5.75l-3.729,0.67c-0.87,0.135-1.195,0.334-1.798,1.005l-4.815,5.021l8.538,15.999
			c0.468,0.938,1.363,1.071,2.434,1.206l3.371,0.469V278.156z M216.561,264.156h-20.485c0.334,5,2.411,7.639,7.9,7.639
			c2.61,0,5.422-0.733,9.975-2.405l2.477,6.562c-4.151,2.008-8.703,3.381-13.724,3.381c-12.919,0-17.338-8.049-17.338-18.493
			c0-12.117,7.431-17.881,16.603-17.881c8.836,0,14.728,4.875,14.728,16.456C216.695,260.218,216.628,262.156,216.561,264.156z
			 M219.312,198.156h-18v-5.275l2.971-0.468c0.938-0.135,1.029-0.336,1.029-1.34v-35.346c0-0.736-0.151-1.205-0.82-1.406
			l-3.658-1.006l0.762-5.158h13.716v18.416l0.373,0.066c3.012-2.476,6.598-4.017,10.816-4.017c7.096,0,9.812,3.883,9.812,10.845
			v17.606c0,1.071,0.357,1.206,1.361,1.34l3.639,0.468v5.275h-16v-21.811c0-2.009,0.055-5.691-3.293-5.691
			c-2.478,0-4.707,1.272-6.707,2.478v17.94c0,1.071-0.075,1.206,0.929,1.34l3.071,0.468V198.156z M260.312,278.156h-15v-21.282
			c0-3.214,0.055-5.893-3.293-5.893c-2.477,0-5.707,1.407-6.707,2.478v17.94c0,1.071-0.576,1.206,0.429,1.341l2.571,0.468v4.948h-19
			v-5.016l3.971-0.4c0.937-0.135,2.029-0.336,2.029-1.341v-19.681c0-0.737-0.595-1.205-1.264-1.406l-3.812-1.503l0.606-5.653h11.715
			l0.536,3.714l0.268,0.247c3.348-2.477,7.26-4.226,11.812-4.226c7.297,0,10.14,4.074,10.14,11.438v17.069
			c0,1.071,0.357,1.206,1.361,1.341l3.639,0.468V278.156z M243.166,180.496c0-12.117,7.43-17.875,16.602-17.875
			c8.836,0,14.728,4.543,14.728,16.125c0,0.803-0.066,3.409-0.134,4.409h-20.485c0.336,4,2.411,7.976,7.9,7.976
			c2.61,0,5.422-0.564,9.975-2.239l2.477,6.647c-4.151,2.008-8.704,3.424-13.725,3.424
			C247.584,198.964,243.166,190.939,243.166,180.496z M319.312,278.156h-15v-21.282c0-2.612-0.132-5.758-3.613-5.758
			c-1.873,0-3.765,0.669-5.504,1.807c0.133,1.071,0.117,2.143,0.117,3.28v15.196c0,1.14,0.193,1.272,1.196,1.407l2.804,0.401v4.948
			h-14v-21.618c0-2.476-0.149-5.422-3.496-5.422c-2.008,0-3.504,1.005-5.504,2.142v18.142c0,1.14-0.109,1.14,0.895,1.341
			l3.105,0.468v4.948h-18v-4.948l2.971-0.468c0.938-0.135,1.029-0.336,1.029-1.341v-19.681c0-0.737-0.211-1.205-0.88-1.406
			l-3.62-1.503l0.731-5.653h11.783l0.535,3.714l0.334,0.181c3.013-2.479,6.427-4.159,10.712-4.159c3.279,0,6.292,0.899,8.167,4.045
			c2.209-1.739,5.9-4.002,10.587-4.002c7.163,0,9.65,3.562,9.65,11.327v17.138c0,1.071,0.357,1.272,1.361,1.407l3.639,0.401V278.156
			z M318.816,170.789c-2.008,0-4.504,1.005-5.504,2.143v18.142c0,1.139,0.392,1.139,1.396,1.34l3.604,0.468v5.275h-19v-5.275
			l2.971-0.468c0.938-0.135,1.029-0.336,1.029-1.34v-19.681c0-0.737-0.119-1.205-0.788-1.406l-3.573-0.839l0.777-4.99h11.781
			l0.535,3.049l0.335-0.148c3.013-2.478,6.427-4.327,10.711-4.327c3.28,0,6.293,0.816,8.168,3.962
			c2.209-1.74,5.81-4.043,10.494-4.043c7.165,0,9.56,3.521,9.56,11.286v17.138c0,1.071,0.357,1.272,1.361,1.407l3.639,0.401v5.275
			h-15v-21.609c0-2.612-0.04-5.758-3.521-5.758c-1.876,0-3.811,0.67-5.553,1.808c0.135,1.071,0.073,2.142,0.073,3.28v15.196
			c0,1.139,0.193,1.272,1.197,1.407l2.803,0.401v5.275h-14v-21.945C322.312,173.735,322.162,170.789,318.816,170.789z
			 M357.312,278.156h-13.101l-0.67-3.444l-0.335,0.019c-2.543,2.477-5.892,4.527-11.247,4.527c-8.435,0-9.774-5.736-9.774-9.887
			c0-6.694,3.606-9.766,11.976-10.301l7.151-0.523v-3.682c0-3.146,0.211-5.289-3.94-5.289c-3.211,0-4.612,0.469-4.612,4.486
			l-9.303-0.805c0-9.037,7.835-10.31,13.994-10.31c10.175,0,13.861,2.745,13.861,12.117v16.268c0,1.071,0.924,1.206,1.93,1.339
			l4.07,0.536V278.156z M387.312,255.734l-7.896-0.268l-0.601-3.548c-0.133-0.602,0.259-0.736-0.276-0.736
			c-1.74,0-4.227,1.474-4.227,2.343v17.741c0,1.071-0.281,1.272,0.723,1.339l6.277,0.535v5.016h-23v-5.082l3.471-0.402
			c0.938-0.133,1.529-0.334,1.529-1.339v-19.614c0-0.737-0.312-1.205-0.983-1.406l-3.672-1.503l0.68-5.653h11.782l0.804,6h0.401
			c2.209-4,5.018-6.115,9.302-6.115c1.539,0,4.687,0.176,5.687,0.511V255.734z M416.171,278.156l-8.372-16.9l-3.486,4.12v6.023
			c0,1.071-0.477,1.206,0.529,1.341l3.471,0.468v4.948h-19v-4.948l3.639-0.468c0.937-0.135,1.361-0.336,1.361-1.341v-35.346
			c0-0.737-0.385-1.205-1.053-1.406l-3.776-1.671l0.646-5.82h14.184v29.382l11.992-13.382h9.008v5.75l-3.367,0.67
			c-0.869,0.135-1.012,0.334-1.614,1.005l-4.726,5.021l8.584,15.999c0.47,0.938,1.021,1.071,2.094,1.206l3.029,0.469v4.881H416.171z
			"/>
	</g>
	<g>
		<path fill="#333333" d="M149.646,101.156"/>
		<g>
			<path fill="#FFFFFF" d="M149.646,102.656c1.935,0,1.935-3,0-3S147.711,102.656,149.646,102.656L149.646,102.656z"/>
		</g>
	</g>
	
		<ellipse fill="none" stroke="#1A1A1A" stroke-width="3" stroke-miterlimit="10" cx="232.573" cy="232.521" rx="230.823" ry="230.947"/>
</g>
</svg>
