<?xml version="1.0" encoding="utf-8"?>
<!-- Generator: Adobe Illustrator 16.0.0, SVG Export Plug-In . SVG Version: 6.00 Build 0)  -->
<!DOCTYPE svg PUBLIC "-//W3C//DTD SVG 1.1//EN" "http://www.w3.org/Graphics/SVG/1.1/DTD/svg11.dtd">
<svg version="1.1" xmlns="http://www.w3.org/2000/svg" xmlns:xlink="http://www.w3.org/1999/xlink" x="0px" y="0px"
	 width="464.938px" height="464.906px" viewBox="0 0 464.938 464.906" enable-background="new 0 0 464.938 464.906"
	 xml:space="preserve">
<g id="Layer_2">
</g>
<g id="Layer_1">
	<g>
		<path fill="#FFFFFF" d="M84.363,270.775c0,2.88,1.875,3.961,4.25,3.961c2.448,0,4.699-1.368,6.699-2.593v-5.977l-5.043,0.36
			C86.021,266.815,84.363,267.896,84.363,270.775z"/>
		<path fill="#FFFFFF" d="M258.709,164.524c-3.096,0-5.616,1.632-6.049,7.632h11.449
			C264.037,166.156,261.662,164.524,258.709,164.524z"/>
		<path fill="#FFFFFF" d="M337.152,270.775c0,2.88,1.48,3.961,3.855,3.961c2.449,0,5.305-1.368,6.305-2.593v-5.977l-4.648,0.36
			C338.416,266.815,337.152,267.896,337.152,270.775z"/>
		<path fill="#FFFFFF" d="M196.539,251.523c-3.097,0-5.617,1.633-6.049,7.633h11.449
			C201.867,253.156,199.491,251.523,196.539,251.523z"/>
		<path fill="#FFFFFF" d="M232.671,0.301C104.508,0.301,0.61,104.199,0.61,232.362c0,128.164,103.897,232.062,232.061,232.062
			s232.061-103.897,232.061-232.062C464.732,104.199,360.835,0.301,232.671,0.301z M279.083,141.156h15.229v46.459
			c0,1.152-0.268,1.296,0.812,1.44l3.188,0.504v5.597h-20v-5.597l3.724-0.504c1.008-0.144,1.276-0.36,1.276-1.44v-38.019
			c0-0.792-0.279-1.296-0.998-1.512l-3.992-1.231L279.083,141.156z M173.604,141.156h14.708v46.459c0,1.152,0.231,1.296,1.312,1.44
			l3.688,0.504v5.597h-20v-5.597l3.224-0.504c1.009-0.144,0.776-0.36,0.776-1.44v-38.019c0-0.792-0.018-1.296-0.738-1.512
			l-3.861-1.231L173.604,141.156z M159.422,139.155c4.176,0,6.553,2.232,6.553,6.336s-2.376,6.48-6.553,6.48
			c-4.104,0-6.48-2.376-6.48-6.48S155.317,139.155,159.422,139.155z M150.312,189.56l3.76-0.504c1.009-0.144,1.24-0.36,1.24-1.44
			v-21.17c0-0.792-0.394-1.296-1.113-1.512l-3.978-1.156l0.704-5.621h15.387v29.459c0,1.152-0.34,1.296,0.74,1.44l3.26,0.504v5.597
			h-20V189.56z M96.854,143.156h21.458v5.576l-5.653,0.535l10.98,35.89h0.576l10.441-35.89l-5.76-0.571l0.72-5.539h18.696v5.576
			l-3.047,0.792c-0.864,0.216-1.595,0.458-1.812,1.322l-13.188,44.31h-14.689l-14.473-44.454c-0.288-0.864-0.864-0.985-1.729-1.201
			l-3.24-0.76L96.854,143.156z M73.312,244.062l-8.01-0.36l-1.053-5.541c-0.144-0.72-0.477-1.004-1.269-1.004H52.312v14h16v8h-16
			v14.787c0,1.152-0.296,1.297,0.784,1.44l10.216,0.576v5.196h-28v-5.124l4.192-0.504c1.008-0.145,0.808-0.36,0.808-1.44v-36.939
			c0-1.08,0.2-1.368-0.808-1.44l-4.192-0.504v-6.048h38V244.062z M110.312,281.156H96.964l-0.72-3.643l-0.36,0.052
			c-2.736,2.664-6.337,4.886-12.097,4.886c-9.073,0-10.513-6.162-10.513-10.627c0-7.199,4.611-10.497,13.612-11.073l8.427-0.561
			v-3.96c0-3.385-0.506-5.688-4.971-5.688c-3.457,0-5.33,0.504-5.33,4.824l-10.189-0.864c0-9.721,8.692-11.089,15.317-11.089
			c10.944,0,15.173,2.952,15.173,13.033v17.497c0,1.152,0.268,1.297,1.348,1.44l3.652,0.576V281.156z M133.312,281.156h-21v-5.196
			l3.724-0.504c1.009-0.145,1.276-0.36,1.276-1.44v-38.02c0-0.792-0.24-1.296-0.959-1.512l-3.972-1.432l0.78-5.896h15.151v46.859
			c0,1.152,0.231,1.296,1.312,1.44l3.688,0.504V281.156z M178.312,281.156h-14.389l-8.934-18.115l-3.677,4.494v6.48
			c0,1.152-0.164,1.296,0.916,1.44l4.084,0.504v5.196h-21v-5.196l3.724-0.504c1.009-0.145,1.276-0.36,1.276-1.44v-38.02
			c0-0.792-0.364-1.296-1.083-1.512l-4.034-1.432l0.718-5.896h15.399v30.874l12.755-13.874h10.245v5.665l-3.898,0.721
			c-0.936,0.144-1.229,0.359-1.877,1.08l-5.151,5.4l9.197,17.209c0.504,1.009,1.208,1.152,2.361,1.297l3.368,0.504V281.156z
			 M212.452,266.156h-22.034c0.36,5,2.592,8.25,8.497,8.25c2.808,0,5.833-0.771,10.729-2.571l2.664,7.066
			c-4.464,2.16-9.361,3.643-14.761,3.643c-13.897,0-18.649-8.656-18.649-19.89c0-13.033,7.993-19.233,17.857-19.233
			c9.505,0,15.841,5.211,15.841,17.668C212.596,261.953,212.524,264.156,212.452,266.156z M216.312,195.156h-20v-5.597l3.044-0.504
			c1.008-0.144,0.956-0.36,0.956-1.44v-38.019c0-0.792-0.142-1.296-0.862-1.512l-3.923-1.231l0.829-5.696h14.956v20.105l0.299,0.072
			c3.24-2.664,6.854-4.32,11.391-4.32c7.633,0,10.311,4.176,10.311,11.665v18.938c0,1.152,0.196,1.296,1.276,1.44l3.724,0.504v5.597
			h-16v-23.382c0-2.16-0.063-6.121-3.664-6.121c-2.664,0-5.336,1.368-7.336,2.665v19.297c0,1.152,0.268,1.296,1.348,1.44
			l3.652,0.504V195.156z M259.312,281.156h-16v-22.766c0-3.456-0.063-6.337-3.664-6.337c-2.664,0-6.336,1.513-7.336,2.664v19.298
			c0,1.152-0.232,1.296,0.848,1.44l3.152,0.504v5.196h-20v-5.269l3.544-0.432c1.008-0.145,1.456-0.36,1.456-1.44v-21.17
			c0-0.792-0.364-1.296-1.083-1.512l-3.962-1.356l0.791-5.821h12.601l0.576,3.733l0.288,0.138c3.6-2.664,7.898-4.611,12.795-4.611
			c7.849,0,10.995,4.317,10.995,12.238v18.361c0,1.152,0.196,1.296,1.276,1.44l3.724,0.504V281.156z M241.068,176.238
			c0-13.033,7.992-19.226,17.857-19.226c9.504,0,15.841,4.915,15.841,17.373c0,0.864-0.071,3.771-0.144,4.771h-22.034
			c0.36,5,2.593,8.55,8.497,8.55c2.808,0,5.832-0.621,10.729-2.422l2.664,7.143c-4.465,2.16-9.361,3.679-14.762,3.679
			C245.82,196.105,241.068,187.471,241.068,176.238z M322.312,281.156h-15v-22.766c0-2.809-0.379-6.192-4.123-6.192
			c-2.016,0-4.09,0.72-5.963,1.943c0.145,1.152,0.086,2.305,0.086,3.528v16.346c0,1.225,0.057,1.368,1.137,1.513l2.863,0.432v5.196
			h-15V258.03c0-2.664,0.18-5.832-3.42-5.832c-2.16,0-4.58,1.08-5.58,2.304v19.514c0,1.225-0.269,1.225,0.812,1.44l3.188,0.504
			v5.196h-20v-5.196l3.544-0.504c1.008-0.145,1.456-0.36,1.456-1.44v-21.17c0-0.792-0.4-1.296-1.12-1.512l-3.98-1.356l0.7-5.821
			h12.674l0.576,3.733l0.359,0.065c3.24-2.664,6.912-4.539,11.521-4.539c3.527,0,6.768,0.936,8.784,4.318
			c2.376-1.871,6.706-4.32,11.746-4.32c7.705,0,10.739,3.815,10.739,12.168v18.434c0,1.152-0.305,1.368,0.775,1.513l3.225,0.432
			V281.156z M322.393,165.797c-2.16,0-4.08,1.08-6.08,2.304v19.514c0,1.224,0.232,1.224,1.312,1.44l3.688,0.504v5.597h-20v-5.597
			l3.544-0.504c1.008-0.144,1.456-0.36,1.456-1.44v-21.17c0-0.792-0.403-1.296-1.122-1.512l-3.981-1.156l0.698-5.621h12.673
			l0.576,3.532l0.359-0.033c3.24-2.665,6.913-4.59,11.521-4.59c3.528,0,6.769,0.91,8.785,4.294
			c2.376-1.872,6.708-4.333,11.749-4.333c7.704,0,10.741,3.803,10.741,12.156v18.434c0,1.152-0.304,1.368,0.776,1.512l3.224,0.432
			v5.597h-15V171.99c0-2.809-0.381-6.193-4.125-6.193c-2.017,0-4.09,0.72-5.963,1.944c0.145,1.152,0.088,2.304,0.088,3.528v16.345
			c0,1.224,0.057,1.368,1.137,1.512l2.863,0.432v5.597h-15V171.63C326.312,168.966,325.992,165.797,322.393,165.797z
			 M363.312,281.156h-13.559l-0.72-3.643l-0.36,0.052c-2.736,2.664-6.337,4.886-12.098,4.886c-9.072,0-10.513-6.162-10.513-10.627
			c0-7.199,4.216-10.497,13.218-11.073l8.031-0.561v-3.96c0-3.385-0.111-5.688-4.576-5.688c-3.455,0-5.132,0.504-5.132,4.824
			l-10.091-0.864c0-9.721,8.847-11.089,15.472-11.089c10.944,0,15.327,2.952,15.327,13.033v17.497c0,1.152,0.268,1.297,1.348,1.44
			l3.652,0.576V281.156z M396.312,257.166l-8.592-0.288l-0.696-3.816c-0.144-0.647-0.155-0.792-0.731-0.792
			c-1.872,0-3.98,1.585-4.98,2.521v19.082c0,1.151-0.068,1.368,1.012,1.439l6.988,0.576v5.269h-24v-5.34l3.544-0.433
			c1.008-0.144,1.456-0.36,1.456-1.44v-21.098c0-0.792-0.344-1.296-1.064-1.512l-3.952-1.356l0.728-5.821h12.673l0.864,6h0.432
			c2.376-4,5.496-6.611,10.104-6.611c1.656,0,5.216,0.156,6.216,0.517V257.166z M427.154,281.156l-9.05-18.115l-3.792,4.494v6.48
			c0,1.152-0.164,1.296,0.916,1.44l4.084,0.504v5.196h-21v-5.196l3.725-0.504c1.008-0.145,1.275-0.36,1.275-1.44v-38.02
			c0-0.792-0.248-1.296-0.969-1.512l-3.977-1.432l0.776-5.896h15.169v30.874l12.985-13.874h10.015v5.665l-3.783,0.721
			c-0.936,0.144-1.171,0.359-1.819,1.08l-5.122,5.4l9.212,17.209c0.504,1.009,1.101,1.152,2.253,1.297l3.26,0.504v5.124H427.154z"/>
	</g>
</g>
</svg>
